<?xml version="1.0" standalone="no"?>
<!DOCTYPE svg PUBLIC "-//W3C//DTD SVG 1.1//EN" "http://www.w3.org/Graphics/SVG/1.1/DTD/svg11.dtd">
<svg xmlns="http://www.w3.org/2000/svg">
<metadata>Generated by Fontastic.me</metadata>
<defs>
<font id="hcf" horiz-adv-x="512">
<font-face font-family="hcf" units-per-em="512" ascent="480" descent="-32"/>
<missing-glyph horiz-adv-x="512" />

<glyph unicode="&#57344;" d="M234 126c-72 69-132 128-132 130 0 2 60 61 132 130l132 126 17-17 17-16-38-36c-20-20-72-70-116-112l-79-75 79-75c44-42 96-92 116-112l38-36-17-16-17-17z"/>
<glyph unicode="&#57345;" d="M124 17l-17 17 116 110c63 60 115 110 115 112 0 1-52 52-115 112l-116 110 17 17 16 17 49-46c27-25 87-83 134-128l84-82-84-82c-47-45-107-103-134-128l-49-46z"/>
<glyph unicode="&#57346;" d="M179 10c4 3 11 5 16 5 4 0 21 9 38 19l31 20-46 11c-34 8-65 11-113 12-78 1-121 8-56 9 23 1 76 6 119 11 61 9 82 9 106 5 19-4 31-4 34 0 3 2 10 27 15 55 6 36 16 66 32 102 25 54 47 142 54 215 4 44 13 46 33 7 18-36 28-112 19-149-3-14-5-32-5-40 0-8-8-30-18-48-34-65-43-121-22-140 6-6 17-12 23-14 6-2 12-8 14-13 2-6 7-11 13-13 16-5 16-16 0-14-7 1-37-6-67-16-48-16-61-18-128-21-40-2-80-4-87-6-10-2-11-2-5 3z"/>
<glyph unicode="&#57347;" d="M195 8c-48 13-83 33-119 68-101 102-101 258 0 360 102 101 258 101 360 0 101-102 101-258 0-360-65-64-157-90-241-68z m100 28c46 9 83 29 118 63 89 90 89 224 0 314-90 89-224 89-314 0-68-69-85-166-44-254 17-35 67-86 101-103 26-12 71-24 95-25 7 0 27 2 44 5z m-2 158l-52 44 0 88 0 89 30 0 0-158 49-42c27-23 49-44 49-46 0-4-18-21-21-20-1 0-26 20-55 45z"/>
<glyph unicode="&#57348;" d="M383 61c-12 13-15 19-14 35 1 17-2 24-21 47-20 24-24 26-37 24-9-2-21-3-27-3-16 0-26-27-15-43 12-17 9-38-7-55-42-41-102 17-62 59 6 7 15 13 19 13 6 0 18 24 15 31 0 2-12 12-26 23l-24 18-45-32c-40-28-46-34-49-51-6-39-48-52-75-25-19 19-20 40-3 60 10 12 16 14 40 15 25 0 31 3 72 32l45 33 0 32c0 23 3 38 13 57l12 25-19 23c-15 17-25 24-39 26-43 7-60 52-28 78 17 15 30 17 47 8 18-10 24-21 24-44 0-18 4-25 23-46 21-23 23-24 36-18 20 9 68 7 93-4l21-9 35 35c31 32 35 37 35 56 2 42 46 60 75 31 30-30 11-74-31-74-19 0-24-4-56-37l-36-36 10-20c16-31 12-75-9-110-18-28-18-28 8-60 11-13 20-20 25-18 4 1 13 0 21-4 34-13 37-63 6-79-22-12-35-10-52 7z m-70 166c67 45 9 140-62 103-32-16-41-62-17-89 23-28 51-33 79-14z"/>
<glyph unicode="&#57349;" d="M430 118c-4 7-9 25-10 41l-3 28-38 22c-49 28-110 47-160 51-46 3-52-3-38-33 8-17 8-17-3-17-6 0-19 9-30 20-12 13-24 21-31 21-7 0-32-7-56-15-23-9-47-16-52-16-14 0-11 14 6 26 10 7 16 15 16 23 0 39 106 100 172 100 8 0 23 5 33 12 23 18 36 17 34 0-1-12 3-16 29-30 39-20 88-68 116-114l23-37 23 3c16 2 28 1 39-5 14-8 14-8 3-8-19-1-46-14-53-27-4-7-8-22-10-35-2-23-3-23-10-10z"/>
<glyph unicode="&#57350;" d="M292 7c0 4 6 15 12 24 33 45 41 60 41 75 0 26-8 30-31 15-26-16-50-42-46-49 2-3 0-13-5-22-8-15-9-16-16-6-13 17-4 47 22 74 13 13 23 26 23 30 0 3-4 17-8 31-8 24-8 24-40 30-17 4-47 13-66 21-29 12-38 14-54 10-10-2-30-4-43-4-21 0-25-2-25-11 0-16 19-32 34-28 9 2 13 0 17-7 9-16 7-21-9-21-22 0-42 9-42 18 0 4-2 8-5 8-8 0-6-19 3-26 10-9 8-33-3-35-6-1-12 7-20 23-10 21-11 27-6 46 3 12 4 28 3 35-4 15 9 32 38 50 13 8 16 13 14 22-2 8 1 22 7 35 11 25 14 52 5 57-3 2-9-5-13-15-14-35-44-29-40 9 7 65 7 86-1 89-12 4-8 10 5 8 6-1 15 1 19 4 9 10 59 12 85 5 12-3 33-14 47-23 14-10 35-22 47-27 15-5 19-10 15-13-8-9-7-12 9-27 9-8 12-14 9-17-6-4-7-11-1-20 5-8 0-16-14-21-10-4-10-5 6-13 9-4 28-11 43-14 33-7 43-13 88-53 36-31 54-59 64-98 3-12 12-29 19-40 11-16 11-18 2-13-9 5-8 3 4-24 20-43 10-45-35-4-39 35-43 42-49 88l-4 27-13-23c-12-24-12-24-3-41l9-18-21-42c-12-23-25-46-29-51-4-4-7-10-7-13 0-10-16-22-29-22-7 0-12 3-12 7z"/>
<glyph unicode="&#57351;" d="M255 149c-6 3-8 9-6 25 3 20 3 21-12 21-21 0-60 29-56 41 2 5 5 14 6 19 2 6-2 15-10 25-7 9-13 20-13 24 0 11-13 10-30-2-20-13-74-31-97-31-22 0-37 12-37 29 0 18 7 18 13 2 10-23 34-21 89 7 78 40 126 48 169 29 12-6 26-10 32-10 9 0 11 3 11 22 0 8 2 9 18 7 10-2 23-4 29-7 8-3 9-2 6 7-2 10 0 12 20 15 12 1 28 1 35 0 8-2 13-1 14 3 2 4 11-2 23-15 12-12 28-23 37-25 11-2 16-6 14-10-1-4-4-15-6-26-3-18-4-18-21-15-18 3-31-4-62-34-6-7-11-9-11-5 0 3-4 6-8 6-4 0-8-5-8-10 0-7-2-9-7-7-4 1-12-2-17-8-5-6-14-11-19-11-6 0-18-8-27-18-12-13-20-18-32-18-16 0-20-8-9-19 5-6 5-8-1-12-10-6-16-6-27 1z m9 61c-2 3-11 7-20 9-12 3-17 8-19 19-3 15-3 15-7 3-5-14 1-20 24-29 22-8 25-8 22-2z m23 23c0 1-7 6-16 10-15 8-16 8-10-2 5-9 26-16 26-8z"/>
<glyph unicode="&#57352;" d="M102 72l0 69 69-69-34-35-35-34z m39 46l-36 36 37 37 37 37 0-73c0-40 0-73-1-73-1 0-18 16-37 36z m43 173c0 113 2 206 4 206 2 0 50-46 106-103l102-102-10-11c-5-6-53-52-106-103l-96-92z m174 49l-33 34 33 33c19 18 35 33 37 33 3 0 4-30 4-66 0-37-1-67-4-67-2 0-18 15-37 33z m-268 80l-87 87 176 0 0-87c0-48 0-87-1-87-1 0-41 39-88 87z m314-22l0 53 52 0c28 0 51-2 50-4 0-2-23-26-51-52l-51-49z"/>
<glyph unicode="&#57353;" d="M228 60c-47 83-97 185-113 234-11 32-13 48-11 70 5 57 38 106 90 131 24 12 35 14 70 14 34 0 45-2 70-14 57-28 88-78 88-142 0-33-3-45-22-93-21-52-88-182-122-236l-15-24z m99 184c28 18 55 55 60 84 14 85-61 160-146 146-30-5-66-32-85-61-13-22-15-30-15-62 0-30 2-40 14-60 37-63 113-83 172-47z"/>
<glyph unicode="&#57354;" d="M215 39c-7 1-28 6-47 10l-35 8 0 51c0 55 4 72 25 93 25 28 39 32 101 32 48 0 59-2 77-12 40-20 55-57 52-124l-1-38-29-10c-27-9-115-15-143-10z m-123 77c-7 1-30 6-52 10l-40 9 0 49c0 56 9 82 35 104 22 18 49 25 94 23l37-1 4-17c1-10 8-24 14-32l10-14-15-7c-35-14-66-67-66-112 0-8-2-15-4-15-2 1-10 2-17 3z m312 29c-3 41-21 71-55 89l-21 12 13 24c7 13 12 28 12 33 0 8 5 9 35 9 44 0 69-7 91-26 25-22 34-49 32-104l-2-46-25-9c-14-4-38-10-52-12l-26-3z m-182 106c-52 31-48 105 7 129 52 23 104-11 104-68 0-56-63-91-111-61z m-133 76c-33 20-45 73-24 102 27 36 66 46 99 26 22-13 29-22 35-44 4-15 3-20-13-43-9-14-17-29-17-33 0-19-54-24-80-8z m257 17c-6 15-18 33-25 39-11 10-12 14-8 28 8 30 41 55 71 55 22 0 53-18 64-37 5-9 9-26 9-37 0-44-30-75-74-75l-25 0z"/>
<glyph unicode="&#57355;" d="M8 9c-7 9-8 33-8 248 0 224 1 239 9 247 9 7 33 8 248 8 224 0 239-1 247-9 7-9 8-33 8-248 0-224-1-239-9-247-8-7-22-8-80-8l-70 0 0 200 33 0c37 0 34-4 42 52l3 24-78 0 0 33c0 44 6 51 48 54l34 2 0 32c0 38-1 38-50 38-77-1-108-32-112-113l-3-46-65 0 0-76 66 0 0-200-127 0c-117 0-128 1-136 9z"/>
<glyph unicode="&#57356;" d="M7 6c-1 4-1 119-1 255l2 248 501 0 0-506-249-2c-197-1-251 0-253 5z m157 186l0 110-72 0 0-220 72 0z m118-38c0 69 0 72 12 84 21 21 49 15 59-13 3-9 5-45 5-80l0-63 73 0-2 83c-2 93-7 113-37 131-27 17-66 16-92-1-17-12-18-13-18-3 0 9-4 10-39 10l-38 0 0-220 77 0z m-122 195c21 25 4 61-30 61-34 0-52-29-38-57 12-22 51-24 68-4z"/>
<glyph unicode="&#57357;" d="M79 44c-12 4-31 17-42 29-59 59-44 154 31 191 21 11 31 13 58 12 29-2 33-1 33 7 0 20-27 90-54 141-16 29-27 52-25 52 9 0 73-51 89-73 63-79 94-238 59-304-25-49-96-75-149-55z m261 4c-46 22-70 60-70 111 0 69 58 122 129 116 27-1 31-1 29 6-1 5-5 19-8 31-9 33-28 78-52 120-11 19-20 37-19 40 3 7 61-38 83-63 43-49 72-128 78-214 5-63-3-88-36-121-40-40-86-49-134-26z"/>
<glyph unicode="&#57358;" d="M79 44c-29 11-62 45-72 76-7 19-8 36-5 72 5 85 35 167 78 217 22 25 80 70 83 63 1-3-6-17-15-32-28-47-53-109-63-154-3-13-3-13 28-10 131 9 180-166 64-226-26-13-71-16-98-6z m279-3c-37 11-65 35-80 69-19 44-4 166 29 235 21 44 47 76 87 106 19 14 36 25 38 25 2 0-9-23-24-52-27-51-55-121-55-141 0-8 4-9 31-7 111 6 170-124 91-203-30-31-78-44-117-32z"/>
<glyph unicode="&#57359;" d="M14 14l-14 14 228 228-228 228 14 14 14 14 228-228 228 228 14-14 14-14-228-228 228-228-14-14-14-14-228 228-228-228z"/>
<glyph unicode="&#57360;" d="M0 87l0 21 512 0 0-41-512 0z m0 169l0 20 512 0 0-40-512 0z m0 164l0 20 512 0 0-41-512 0z"/>
<glyph unicode="&#57361;" d="M8 121c-10 9-10 23-2 32 9 8 491 8 500 0 8-9 8-23-2-32-7-7-37-8-248-8-211 0-241 1-248 8z m25 92c12 92 74 164 166 192 13 4 28 12 35 18 14 15 30 15 44 0 7-6 22-14 35-18 92-28 154-100 166-192l3-29-452 0z m56 5c6 15 3 33-4 33-7 0-13-15-13-32 0-11 13-12 17-1z m29 71c6 10 17 23 26 30 24 21 16 34-10 16-15-10-42-47-42-57 0-13 15-7 26 11z"/>
<glyph unicode="&#57362;" d="M2 5c-1 3 1 11 5 18 8 13 10 13 74 13l65 0-25 13c-35 19-63 49-83 91-18 39-35 109-32 138l2 16 404 0 2-16 1-17 38 0c32 0 40-2 49-10 14-14 13-29-5-60-25-43-72-73-114-73-8 0-14-2-14-4 0-10-40-49-64-63l-26-15 64-1c62-2 64-2 70-14 3-7 5-15 4-17-4-6-411-5-415 1z m432 160c20 12 47 47 47 61 0 8-4 10-35 10l-35 0-8-35c-4-19-10-39-12-44-3-9-2-10 11-6 9 2 23 8 32 14z m-239 162c-13 26-13 37 0 62 8 17 9 22 4 33-7 15-4 21 8 17 16-7 19-29 8-52-13-27-13-32 0-55 5-10 8-20 7-22-8-7-18-1-27 17z m43 53c-2 5 0 15 5 24 10 19 10 36 0 49-14 18-6 59 11 59 6 0 7-4 5-20-3-14-1-25 4-36 10-19 11-38 1-56-11-21-22-30-26-20z"/>
<glyph unicode="&#57363;" d="M151 80c-5 5-7 12-5 20 3 10 2 11-9 9-15-3-27 10-23 25 3 9 1 10-8 8-14-4-24 4-24 20 0 9-3 12-13 12-23 0-27 26-9 47 15 18 48 9 48-12 0-6 3-9 10-9 6 0 14-6 19-15 4-8 15-18 23-23 8-4 14-12 14-17 0-6 6-12 15-15 14-5 16-9 16-24 0-15-3-20-15-27-19-9-29-9-39 1z m85 12c-3 5-6 15-6 21 0 10-11 25-60 74-3 3-19 19-36 37-25 26-34 32-47 32-19 0-35-8-49-24-7-8-13-11-21-9-12 3-12 5-12 87 0 46 2 84 5 84 2 0 14-3 26-8 34-12 50-10 94 13 41 22 70 26 91 15 13-7 10-11-29-32-18-11-35-23-38-29-9-15-6-43 5-58 16-21 36-22 75-4 51 25 53 24 113-36 54-55 62-70 42-81-13-7-13-7-38 16-27 25-32 20-5-6 20-19 23-37 7-46-12-6-12-6-52 25l-22 18 22-23c22-24 26-34 15-44-11-12-26-7-49 15-22 21-21 16 1-9 5-7 9-17 8-24-3-16-32-20-40-4z m128 191c-33 33-64 60-69 60-5 0-27-9-49-20-57-29-80-26-76 8 1 13 10 20 71 54 38 22 73 40 79 40 6 0 27-14 48-31 21-17 42-30 46-30 5 0 22 3 39 7 17 4 34 8 37 8 8 0 10-141 2-146-3-1-19-4-36-6l-31-3z"/>
<glyph unicode="&#57364;" d="M47 58l-42 42 22 31c27 37 67 74 79 74 30 1 124 11 164 18 43 8 49 8 56 1 10-10 4-32-12-45-7-5-27-14-44-18-40-12-28-19 24-17 32 2 43 5 90 29 29 15 57 27 62 27 16 0 30-10 30-21 0-14-68-64-118-87-36-16-42-18-123-23l-85-5-61-48z m206 217c-47 27-79 67-92 116-4 17-7 33-7 36 0 6 43-1 75-13 48-18 89-72 88-117l0-23-11 15c-6 9-25 29-41 46l-30 31 23-30c13-16 28-38 34-49l10-21-16 0c-10 1-24 5-33 9z m90 47c0 6 29 51 50 77l18 23-19-18c-11-9-30-31-42-47-24-33-32-31-25 5 8 41 40 85 76 103 28 14 86 27 93 21 2-3 1-18-5-38-14-52-51-98-98-122-17-9-48-12-48-4z m-65 78c-32 16-63 61-63 92 0 10 2 11 19 7 50-9 89-48 88-88l0-14-11 15c-30 40-41 46-16 8 12-17 16-31 8-31-2 0-13 5-25 11z"/>
<glyph unicode="&#57365;" d="M168 18c-7 4-16 15-19 24-5 14-4 20 8 44 10 21 12 29 7 33-3 4-30 8-61 9-82 5-93 15-93 92 0 39 7 77 14 77 1 0 11-6 21-13 31-21 63-14 76 16 9 22 5 40-12 53-17 14-39 13-64-1-28-16-32-10-34 54-3 85 11 101 90 100 72 0 85-9 63-40-20-28-12-62 18-75 22-9 46-1 56 19 11 20 10 33-5 58-12 20-12 23-5 29 12 10 105 13 125 5 26-11 32-27 36-93 1-33 5-62 7-64 2-2 13 1 24 7 29 17 52 15 69-4 17-22 17-43-2-62-19-18-36-19-65-2-17 10-23 11-26 7-2-4-6-32-7-64-4-87-17-99-106-99-60 0-76-7-63-27 19-31 22-39 15-58-6-18-26-33-44-33-5 1-15 4-23 8z"/>
<glyph unicode="&#57366;" d="M160 21c-8 8-8 21 0 29 3 4 21 6 43 6l38 0 0 51-22 6c-35 9-56 22-81 49-34 37-43 64-43 132 0 47 1 56 9 61 6 4 11 4 18 0 7-4 9-15 11-61 3-65 11-85 44-114 48-42 115-42 163 0 33 29 41 49 44 114 2 46 4 57 12 61 6 4 11 4 17 0 8-5 9-14 9-61 0-68-9-95-43-132-25-27-46-40-81-49l-22-6 0-50 40-2c30-1 40-3 44-10 4-7 4-12 0-18-5-8-16-9-100-10-69-1-96 0-100 4z m52 175c-20 10-42 36-46 56-1 10-2 57-1 105 2 99 2 102 45 133 32 23 65 23 97 0 44-32 44-32 44-147 0-112-1-115-35-140-18-14-80-17-104-7z m59 244c0 41 0 41-12 41-13 0-13 0-13-41 0-40 0-41 13-41 12 0 12 1 12 41z"/>
</font>
</defs>
</svg>
